<?xml version="1.0" encoding="utf-8"?>
<!-- Generator: Adobe Illustrator 24.1.1, SVG Export Plug-In . SVG Version: 6.00 Build 0)  -->
<svg version="1.1" id="Layer_1" xmlns="http://www.w3.org/2000/svg" xmlns:xlink="http://www.w3.org/1999/xlink" x="0px" y="0px"
	 viewBox="0 0 68.69 27" style="enable-background:new 0 0 68.69 27;" xml:space="preserve">
<style type="text/css">
	.st0{fill:#2F4858;}
	.st1{fill:#0DA34B;}
</style>
<g id="Layer_2_1_">
	<g id="Layer_1-2">
		<path class="st0" d="M2.45,10.86c0.95-0.68,2.1-1.03,3.27-1c1.51-0.02,2.95,0.59,4,1.67c1.08,1.05,1.69,2.49,1.67,4
			c0.02,1.51-0.59,2.95-1.67,4c-1.05,1.08-2.49,1.68-4,1.67c-1.51,0.01-2.95-0.59-4-1.67c-1.08-1.05-1.68-2.49-1.67-4v-9h2.4V10.86z
			 M8.03,17.86c0.64-0.6,1-1.43,1-2.31c0.01-1.79-1.44-3.24-3.23-3.25c-0.03,0-0.05,0-0.08,0c-0.87-0.02-1.7,0.33-2.31,0.95
			c-0.64,0.6-1,1.43-1,2.31c-0.01,0.88,0.36,1.71,1,2.31c0.6,0.64,1.43,1.01,2.31,1c0.87-0.01,1.69-0.37,2.28-1L8.03,17.86z"/>
		<path class="st0" d="M15.52,9.85v11.43h-2.45V9.85H15.52z"/>
		<path class="st0" d="M26.13,20.27c-2.28,1.57-5.35,1.29-7.31-0.66c-1.08-1.05-1.68-2.49-1.67-4c-0.01-3.15,2.54-5.7,5.69-5.71
			c0.01,0,0.02,0,0.03,0c3.15-0.01,5.7,2.54,5.71,5.69c0,0.01,0,0.01,0,0.02v5.72c-0.02,3.14-2.57,5.68-5.71,5.67v-2.45
			c1.8,0,3.26-1.46,3.26-3.26c0,0,0-0.01,0-0.01L26.13,20.27z M22.87,18.83c1.8,0,3.26-1.46,3.26-3.26c0,0,0-0.01,0-0.01
			c0.01-1.79-1.43-3.25-3.22-3.26c-0.01,0-0.03,0-0.04,0c-1.8-0.01-3.26,1.45-3.27,3.25c0,0,0,0.01,0,0.01
			C19.61,17.36,21.07,18.82,22.87,18.83z"/>
		<path class="st0" d="M41.65,15.56c-0.03,3.16-2.61,5.7-5.77,5.67c-1.5-0.01-2.93-0.61-3.99-1.67c-1.08-1.05-1.69-2.49-1.67-4
			c-0.01-3.15,2.54-5.7,5.69-5.71c0.01,0,0.01,0,0.02,0c1.17-0.03,2.32,0.32,3.27,1V6.58h2.45V15.56z M38.24,17.87
			c0.64-0.6,1.01-1.43,1-2.31c0.1-1.8-1.28-3.35-3.08-3.45c-1.8-0.1-3.35,1.28-3.45,3.08c-0.01,0.12-0.01,0.24,0,0.36
			c-0.02,0.87,0.32,1.71,0.95,2.31c1.27,1.28,3.33,1.28,4.61,0.01c0,0,0.01-0.01,0.01-0.01H38.24z"/>
		<path class="st0" d="M49,21.28c-3.15,0.01-5.71-2.53-5.72-5.68c0-0.01,0-0.03,0-0.04c-0.13-3.16,2.32-5.82,5.48-5.95
			s5.82,2.32,5.95,5.48c0.01,0.16,0.01,0.32,0,0.48c0.01,3.15-2.53,5.71-5.68,5.72C49.02,21.28,49.01,21.28,49,21.28z M51.31,17.87
			c0.63-0.6,0.97-1.44,0.95-2.31c0.02-0.87-0.33-1.7-0.95-2.31c-1.28-1.28-3.35-1.27-4.62,0c-0.61,0.61-0.95,1.44-0.96,2.31
			c-0.01,0.88,0.36,1.71,1,2.31c1.27,1.28,3.33,1.28,4.61,0.01c0,0,0.01-0.01,0.01-0.01H51.31z"/>
		<path class="st0" d="M58.8,12.3v3.26c-0.01,1.8,1.45,3.26,3.25,3.27c0,0,0.01,0,0.01,0v2.45c-3.15,0.01-5.7-2.54-5.71-5.69
			c0-0.01,0-0.02,0-0.03v-9h2.45v3.29h3.26v2.45H58.8z"/>
		<path class="st1" d="M65.4,6.58c-0.88,0.01-1.73-0.36-2.33-1c-0.64-0.6-1-1.45-1-2.33c0-0.88,0.36-1.73,1-2.33
			c1.29-1.28,3.37-1.28,4.66,0c0.64,0.6,1,1.45,1,2.33c0,0.88-0.36,1.73-1,2.33C67.13,6.22,66.28,6.58,65.4,6.58z"/>
	</g>
</g>
</svg>
